# Generated by Visualization Toolkit
mtllib plane.mtl
v -0.5 -0.5 0
v 0.5 -0.5 0
v -0.5 0.5 0
v 0.5 0.5 0
v -0.5 0 0
v 0 -0.5 0
v 0 0 0
v 0.5 0 0
v 0 0.5 0
v -0.5 -0.25 0
v -0.25 -0.5 0
v -0.25 -0.25 0
v 0 -0.25 0
v 0.25 -0.5 0
v 0.25 -0.25 0
v -0.25 0 0
v -0.25 0.25 0
v -0.5 0.25 0
v 0.5 0.25 0
v 0.25 0.5 0
v 0.25 0.25 0
v 0 0.25 0
v -0.25 0.5 0
v 0.25 0 0
v 0.5 -0.25 0
vn 0 0 1
vn 0 0 1
vn 0 0 1
vn 0 0 1
vn 0 0 1
vn 0 0 1
vn 0 0 1
vn 0 0 1
vn 0 0 1
vn 0 0 1
vn 0 0 1
vn 0 0 1
vn 0 0 1
vn 0 0 1
vn 0 0 1
vn 0 0 1
vn 0 0 1
vn 0 0 1
vn 0 0 1
vn 0 0 1
vn 0 0 1
vn 0 0 1
vn 0 0 1
vn 0 0 1
vn 0 0 1
# tcoords array 0
vt 0 0
vt 1 0
vt 0 1
vt 1 1
vt 0 0.5
vt 0.5 0
vt 0.5 0.5
vt 1 0.5
vt 0.5 1
vt 0 0.25
vt 0.25 0
vt 0.25 0.25
vt 0.5 0.25
vt 0.75 0
vt 0.75 0.25
vt 0.25 0.5
vt 0.25 0.75
vt 0 0.75
vt 1 0.75
vt 0.75 1
vt 0.75 0.75
vt 0.5 0.75
vt 0.25 1
vt 0.75 0.5
vt 1 0.25
usemtl plane
f 1/1/1 11/11/11 10/10/10
f 11/11/11 6/6/6 12/12/12
f 12/12/12 5/5/5 10/10/10
f 11/11/11 12/12/12 10/10/10
f 6/6/6 14/14/14 13/13/13
f 14/14/14 2/2/2 15/15/15
f 15/15/15 7/7/7 13/13/13
f 14/14/14 15/15/15 13/13/13
f 7/7/7 17/17/17 16/16/16
f 17/17/17 3/3/3 18/18/18
f 18/18/18 5/5/5 16/16/16
f 17/17/17 18/18/18 16/16/16
f 6/6/6 13/13/13 12/12/12
f 13/13/13 7/7/7 16/16/16
f 16/16/16 5/5/5 12/12/12
f 13/13/13 16/16/16 12/12/12
f 4/4/4 20/20/20 19/19/19
f 20/20/20 9/9/9 21/21/21
f 21/21/21 8/8/8 19/19/19
f 20/20/20 21/21/21 19/19/19
f 9/9/9 23/23/23 22/22/22
f 23/23/23 3/3/3 17/17/17
f 17/17/17 7/7/7 22/22/22
f 23/23/23 17/17/17 22/22/22
f 7/7/7 15/15/15 24/24/24
f 15/15/15 2/2/2 25/25/25
f 25/25/25 8/8/8 24/24/24
f 15/15/15 25/25/25 24/24/24
f 9/9/9 22/22/22 21/21/21
f 22/22/22 7/7/7 24/24/24
f 24/24/24 8/8/8 21/21/21
f 22/22/22 24/24/24 21/21/21
